<svg width="40" height="40" viewBox="0 0 40 40" fill="none" xmlns="http://www.w3.org/2000/svg">
<rect width="40" height="40" rx="10.6667" fill="white" fill-opacity="0.03"/>
<path d="M14.5833 16.4167L13.1904 17.8096C11.8886 19.1114 11.8886 21.2219 13.1904 22.5237L14.5833 23.9167M14.5833 16.4167L17.643 13.357C18.9447 12.0553 21.0553 12.0553 22.357 13.357L25.4167 16.4167M14.5833 16.4167L16.3536 16.4167C16.5554 16.4167 16.7504 16.4899 16.9023 16.6229L19.4512 18.8532C19.7654 19.1281 20.2346 19.1281 20.5488 18.8532L23.0977 16.6229C23.2496 16.4899 23.4446 16.4167 23.6464 16.4167L25.4167 16.4167M25.4167 16.4167L26.8096 17.8096C28.1114 19.1114 28.1114 21.2219 26.8096 22.5237L25.4167 23.9167M14.5833 23.9167L17.643 26.9763C18.9447 28.2781 21.0553 28.2781 22.357 26.9763L25.4167 23.9167M14.5833 23.9167H16.4277C16.5839 23.9167 16.7369 23.8728 16.8693 23.79L19.5583 22.1094C19.8286 21.9405 20.1714 21.9405 20.4417 22.1094L23.1307 23.79C23.2631 23.8728 23.4161 23.9167 23.5723 23.9167H25.4167" stroke="#B8B8B8" stroke-width="1.66667"/>
</svg>
